<?xml version="1.0" standalone="no"?>
<!DOCTYPE svg PUBLIC "-//W3C//DTD SVG 20010904//EN"
 "http://www.w3.org/TR/2001/REC-SVG-20010904/DTD/svg10.dtd">
<svg version="1.0" xmlns="http://www.w3.org/2000/svg"
 width="260.000000pt" height="260.000000pt" viewBox="0 0 260.000000 260.000000"
 preserveAspectRatio="xMidYMid meet">
<metadata>
Created by potrace 1.14, written by Peter Selinger 2001-2017
</metadata>
<g transform="translate(0.000000,260.000000) scale(0.100000,-0.100000)"
fill="#000000" stroke="none">
<path d="M739 2206 c-3 -3 -18 -7 -35 -10 -54 -10 -148 -65 -194 -114 -57 -61
-91 -102 -85 -102 3 0 -1 -10 -9 -22 -12 -19 -25 -59 -42 -120 -1 -5 -3 -9 -4
-10 -1 -2 -3 -24 -5 -51 -2 -26 -5 -54 -9 -62 -3 -8 -2 -15 3 -15 4 0 7 -16 6
-35 -1 -19 3 -35 9 -35 6 0 4 -5 -4 -10 -11 -7 -11 -10 -2 -10 7 0 12 -6 10
-12 -7 -40 54 -208 118 -321 65 -115 76 -132 90 -140 8 -4 14 -14 14 -22 0 -8
6 -18 13 -22 7 -4 24 -24 37 -43 13 -19 29 -40 35 -46 5 -6 33 -37 60 -69 28
-33 60 -70 73 -84 77 -86 198 -216 270 -289 45 -46 82 -89 82 -95 0 -6 3 -8 6
-4 8 8 34 -18 34 -34 0 -7 3 -9 7 -6 3 4 17 -8 30 -25 42 -57 45 -56 142 42
48 49 88 90 87 90 -1 0 39 42 88 93 50 52 123 129 161 172 39 43 79 89 90 101
89 98 145 169 145 184 0 7 3 11 6 7 4 -3 22 17 42 46 54 78 123 197 114 197
-4 0 -2 4 3 8 13 9 68 139 73 171 2 14 7 32 11 40 5 9 7 24 6 34 -2 9 0 17 4
17 4 0 7 25 6 55 0 30 4 55 8 55 5 0 6 4 3 9 -3 5 -8 33 -10 62 -10 120 -47
201 -133 292 -37 39 -115 97 -131 97 -5 0 -24 8 -42 17 -41 20 -198 27 -255
12 -58 -16 -145 -58 -145 -70 0 -6 -4 -8 -8 -5 -14 8 -192 -171 -192 -193 0
-19 -25 -29 -38 -15 -7 8 -10 14 -7 14 8 0 -9 20 -72 88 -29 30 -53 59 -53 64
0 4 -4 8 -10 8 -5 0 -30 16 -56 35 -25 19 -56 38 -70 41 -13 3 -24 10 -24 16
0 5 -6 8 -12 7 -7 -2 -31 3 -53 9 -38 11 -177 17 -186 8z"/>
</g>
</svg>
